# 3ds Max Wavefront OBJ Exporter v0.97b - (c)2007 guruware
# File Created: 04.04.2020 20:13:54

#
# object billboard02
#

v  -76.6698 -17.8673 0.0000
v  -76.6698 -35.7345 0.0000
v  -38.3349 -35.7345 0.0000
v  -38.3349 -17.8673 0.0000
v  -0.0000 -35.7345 0.0000
v  -0.0000 -17.8673 0.0000
v  38.3349 -35.7345 0.0000
v  38.3349 -17.8673 0.0000
v  76.6698 -35.7345 0.0000
v  76.6698 -17.8673 0.0000
v  -76.6698 0.0000 0.0000
v  -38.3349 0.0000 0.0000
v  -0.0000 0.0000 0.0000
v  38.3349 0.0000 0.0000
v  76.6698 0.0000 0.0000
v  -76.6698 17.8672 0.0000
v  -38.3349 17.8672 0.0000
v  -0.0000 17.8672 0.0000
v  38.3349 17.8672 0.0000
v  76.6698 17.8672 0.0000
v  -76.6698 35.7345 0.0000
v  -38.3349 35.7345 0.0000
v  -0.0000 35.7345 0.0000
v  38.3349 35.7345 0.0000
v  76.6698 35.7345 0.0000
# 25 vertices

vn 0.0000 0.0000 1.0000
# 1 vertex normals

vt 0.4884 0.3920 0.0000
vt 0.4884 0.3327 0.0000
vt 0.6158 0.3327 0.0000
vt 0.6158 0.3920 0.0000
vt 0.7432 0.3327 0.0000
vt 0.7432 0.3920 0.0000
vt 0.8706 0.3327 0.0000
vt 0.8706 0.3920 0.0000
vt 0.9980 0.3327 0.0000
vt 0.9980 0.3920 0.0000
vt 0.4884 0.4514 0.0000
vt 0.6158 0.4514 0.0000
vt 0.7432 0.4514 0.0000
vt 0.8706 0.4514 0.0000
vt 0.9980 0.4514 0.0000
vt 0.4884 0.5108 0.0000
vt 0.6158 0.5108 0.0000
vt 0.7432 0.5108 0.0000
vt 0.8706 0.5108 0.0000
vt 0.9980 0.5108 0.0000
vt 0.4884 0.5702 0.0000
vt 0.6158 0.5702 0.0000
vt 0.7432 0.5702 0.0000
vt 0.8706 0.5702 0.0000
vt 0.9980 0.5702 0.0000
# 25 texture coords

o billboard02
g billboard02
s off
f 1/1/1 2/2/1 3/3/1 4/4/1 
f 4/4/1 3/3/1 5/5/1 6/6/1 
f 6/6/1 5/5/1 7/7/1 8/8/1 
f 8/8/1 7/7/1 9/9/1 10/10/1 
f 11/11/1 1/1/1 4/4/1 12/12/1 
f 12/12/1 4/4/1 6/6/1 13/13/1 
f 13/13/1 6/6/1 8/8/1 14/14/1 
f 14/14/1 8/8/1 10/10/1 15/15/1 
f 16/16/1 11/11/1 12/12/1 17/17/1 
f 17/17/1 12/12/1 13/13/1 18/18/1 
f 18/18/1 13/13/1 14/14/1 19/19/1 
f 19/19/1 14/14/1 15/15/1 20/20/1 
f 21/21/1 16/16/1 17/17/1 22/22/1 
f 22/22/1 17/17/1 18/18/1 23/23/1 
f 23/23/1 18/18/1 19/19/1 24/24/1 
f 24/24/1 19/19/1 20/20/1 25/25/1 
# 16 polygons

