# 3ds Max Wavefront OBJ Exporter v0.97b - (c)2007 guruware
# File Created: 04.04.2020 20:13:40

#
# object guardrail_straight
#

v  17.5354 7.0621 -0.0263
v  17.5354 7.0621 -2.3115
v  15.3738 7.0621 -2.3115
v  15.3738 7.0621 -0.0263
v  17.5354 -7.9439 -0.0263
v  15.3738 -7.9439 -0.0263
v  15.3738 -7.9439 -2.3115
v  17.5354 -7.9439 -2.3115
v  21.7724 4.4292 1.1363
v  0.0000 4.4292 1.1363
v  0.0000 6.1865 1.1363
v  21.7724 6.1865 1.1363
v  21.7724 2.6718 -0.2611
v  21.7724 2.6718 0.9140
v  0.0000 2.6718 0.9140
v  0.0000 2.6718 -0.2611
v  21.7724 6.1864 2.3115
v  21.7724 4.4292 2.3115
v  0.0000 7.9439 -0.2611
v  21.7724 7.9439 -0.2611
v  0.0000 4.4292 2.3115
v  21.7724 7.9439 0.9140
v  0.0000 6.1864 2.3115
v  0.0000 7.9439 0.9140
v  21.7724 -1.7210 1.1363
v  0.0000 -1.7210 1.1363
v  0.0000 0.0364 1.1363
v  21.7724 0.0364 1.1363
v  21.7724 -3.4783 -0.2611
v  21.7724 -3.4783 0.9140
v  0.0000 -3.4783 0.9140
v  0.0000 -3.4783 -0.2611
v  21.7724 0.0363 2.3115
v  21.7724 -1.7210 2.3115
v  0.0000 1.7937 -0.2611
v  21.7724 1.7937 -0.2611
v  0.0000 -1.7210 2.3115
v  21.7724 1.7937 0.9140
v  0.0000 0.0363 2.3115
v  0.0000 1.7937 0.9140
v  -17.5354 7.0621 -0.0263
v  -15.3738 7.0621 -0.0263
v  -15.3738 7.0621 -2.3115
v  -17.5354 7.0621 -2.3115
v  -17.5354 -7.9439 -0.0263
v  -15.3738 -7.9439 -0.0263
v  -15.3738 -7.9439 -2.3115
v  -17.5354 -7.9439 -2.3115
v  -21.7724 4.4292 1.1363
v  -21.7724 6.1865 1.1363
v  -21.7724 2.6718 -0.2611
v  -21.7724 2.6718 0.9140
v  -21.7724 4.4292 2.3115
v  -21.7724 6.1864 2.3115
v  -21.7724 7.9439 -0.2611
v  -21.7724 7.9439 0.9140
v  -21.7724 -1.7210 1.1363
v  -21.7724 0.0364 1.1363
v  -21.7724 -3.4783 -0.2611
v  -21.7724 -3.4783 0.9140
v  -21.7724 -1.7210 2.3115
v  -21.7724 0.0363 2.3115
v  -21.7724 1.7937 -0.2611
v  -21.7724 1.7937 0.9140
# 64 vertices

vn 0.5774 0.5774 0.5774
vn 0.5774 0.5774 -0.5774
vn -0.5774 0.5774 -0.5774
vn -0.5774 0.5774 0.5774
vn 0.7071 0.0000 0.7071
vn -0.7071 0.0000 0.7071
vn -0.7071 0.0000 -0.7071
vn 0.7071 0.0000 -0.7071
vn 0.7893 0.2024 -0.5796
vn 0.0000 0.3296 -0.9441
vn 0.0000 -0.3296 -0.9441
vn 0.7894 -0.2024 -0.5796
vn 0.5500 -0.3629 -0.7522
vn 0.6211 -0.7059 0.3405
vn 0.0000 -0.9007 0.4345
vn -0.0000 -0.4345 -0.9007
vn 0.6399 0.2533 0.7255
vn 0.6399 -0.2533 0.7255
vn -0.0000 0.4345 -0.9007
vn 0.5500 0.3629 -0.7522
vn 0.0000 -0.3296 0.9441
vn 0.6212 0.7058 0.3405
vn 0.0000 0.3296 0.9441
vn 0.0000 0.9007 0.4345
vn -0.7893 0.2024 -0.5796
vn -0.7894 -0.2024 -0.5796
vn -0.5500 -0.3629 -0.7522
vn -0.6211 -0.7059 0.3405
vn -0.6399 -0.2533 0.7255
vn -0.6399 0.2533 0.7255
vn -0.5500 0.3629 -0.7522
vn -0.6212 0.7058 0.3405
# 32 vertex normals

vt 0.0509 0.7500 0.0000
vt 0.0509 0.7424 0.0000
vt 0.0581 0.7424 0.0000
vt 0.0581 0.7500 0.0000
vt 0.0010 0.7500 0.0000
vt 0.0509 0.7572 0.0000
vt 0.0010 0.7572 0.0000
vt 0.0010 0.7276 0.0000
vt 0.0509 0.7276 0.0000
vt 0.0509 0.7352 0.0000
vt 0.0010 0.7352 0.0000
vt 0.0010 0.7424 0.0000
vt 0.9912 0.0349 0.0000
vt 0.9910 0.1072 0.0000
vt 0.9851 0.1072 0.0000
vt 0.9855 0.0349 0.0000
vt 0.9487 0.0348 0.0000
vt 0.9522 0.0348 0.0000
vt 0.9527 0.1072 0.0000
vt 0.9487 0.1072 0.0000
vt 0.9672 0.0312 0.0000
vt 0.9663 0.0350 0.0000
vt 0.9605 0.0350 0.0000
vt 0.9597 0.0312 0.0000
vt 0.9776 0.1072 0.0000
vt 0.9781 0.0349 0.0000
vt 0.9603 0.1072 0.0000
vt 0.9522 0.0312 0.0000
vt 0.9747 0.0312 0.0000
vt 0.9747 0.0349 0.0000
vt 0.9662 0.1072 0.0000
vt 0.9737 0.1072 0.0000
vt 0.9986 0.1072 0.0000
vt 0.9986 0.0349 0.0000
vt 1.0509 0.7500 0.0000
vt 1.0581 0.7500 0.0000
vt 1.0581 0.7424 0.0000
vt 1.0509 0.7424 0.0000
vt 1.0010 0.7500 0.0000
vt 1.0010 0.7572 0.0000
vt 1.0509 0.7572 0.0000
vt 1.0010 0.7276 0.0000
vt 1.0010 0.7352 0.0000
vt 1.0509 0.7352 0.0000
vt 1.0509 0.7276 0.0000
vt 1.0010 0.7424 0.0000
vt 1.9912 0.0349 0.0000
vt 1.9855 0.0349 0.0000
vt 1.9851 0.1072 0.0000
vt 1.9910 0.1072 0.0000
vt 1.9487 0.0348 0.0000
vt 1.9487 0.1072 0.0000
vt 1.9527 0.1072 0.0000
vt 1.9522 0.0348 0.0000
vt 1.9672 0.0312 0.0000
vt 1.9597 0.0312 0.0000
vt 1.9605 0.0350 0.0000
vt 1.9663 0.0350 0.0000
vt 1.9781 0.0349 0.0000
vt 1.9776 0.1072 0.0000
vt 1.9603 0.1072 0.0000
vt 1.9522 0.0312 0.0000
vt 1.9747 0.0349 0.0000
vt 1.9747 0.0312 0.0000
vt 1.9662 0.1072 0.0000
vt 1.9737 0.1072 0.0000
vt 1.9986 0.1072 0.0000
vt 1.9986 0.0349 0.0000
# 68 texture coords

o guardrail_straight
g guardrail_straight
s off
f 1/1/1 2/2/2 3/3/3 4/4/4 
f 5/5/5 1/1/1 4/6/4 6/7/6 
f 6/8/6 4/9/4 3/10/3 7/11/7 
f 7/11/7 3/10/3 2/2/2 8/12/8 
f 8/12/8 2/2/2 1/1/1 5/5/5 
f 9/13/9 10/14/10 11/15/11 12/16/12 
f 13/17/13 14/18/14 15/19/15 16/20/16 
f 12/21/12 17/22/17 18/23/18 9/24/9 
f 12/16/12 11/15/11 19/25/19 20/26/20 
f 18/23/18 21/27/21 15/19/15 14/18/14 
f 9/24/9 18/23/18 14/18/14 13/28/13 
f 17/22/17 12/21/12 20/29/20 22/30/22 
f 23/31/23 21/27/21 18/23/18 17/22/17 
f 19/25/19 24/32/24 22/30/22 20/26/20 
f 16/33/16 10/14/10 9/13/9 13/34/13 
f 24/32/24 23/31/23 17/22/17 22/30/22 
f 25/13/9 26/14/10 27/15/11 28/16/12 
f 29/17/13 30/18/14 31/19/15 32/20/16 
f 28/21/12 33/22/17 34/23/18 25/24/9 
f 28/16/12 27/15/11 35/25/19 36/26/20 
f 34/23/18 37/27/21 31/19/15 30/18/14 
f 25/24/9 34/23/18 30/18/14 29/28/13 
f 33/22/17 28/21/12 36/29/20 38/30/22 
f 39/31/23 37/27/21 34/23/18 33/22/17 
f 35/25/19 40/32/24 38/30/22 36/26/20 
f 32/33/16 26/14/10 25/13/9 29/34/13 
f 40/32/24 39/31/23 33/22/17 38/30/22 
f 41/35/4 42/36/1 43/37/2 44/38/3 
f 45/39/6 46/40/5 42/41/1 41/35/4 
f 46/42/5 47/43/8 43/44/2 42/45/1 
f 47/43/8 48/46/7 44/38/3 43/44/2 
f 48/46/7 45/39/6 41/35/4 44/38/3 
f 49/47/25 50/48/26 11/49/11 10/50/10 
f 51/51/27 16/52/16 15/53/15 52/54/28 
f 50/55/26 49/56/25 53/57/29 54/58/30 
f 50/48/26 55/59/31 19/60/19 11/49/11 
f 53/57/29 52/54/28 15/53/15 21/61/21 
f 49/56/25 51/62/27 52/54/28 53/57/29 
f 54/58/30 56/63/32 55/64/31 50/55/26 
f 23/65/23 54/58/30 53/57/29 21/61/21 
f 19/60/19 55/59/31 56/63/32 24/66/24 
f 16/67/16 51/68/27 49/47/25 10/50/10 
f 24/66/24 56/63/32 54/58/30 23/65/23 
f 57/47/25 58/48/26 27/49/11 26/50/10 
f 59/51/27 32/52/16 31/53/15 60/54/28 
f 58/55/26 57/56/25 61/57/29 62/58/30 
f 58/48/26 63/59/31 35/60/19 27/49/11 
f 61/57/29 60/54/28 31/53/15 37/61/21 
f 57/56/25 59/62/27 60/54/28 61/57/29 
f 62/58/30 64/63/32 63/64/31 58/55/26 
f 39/65/23 62/58/30 61/57/29 37/61/21 
f 35/60/19 63/59/31 64/63/32 40/66/24 
f 32/67/16 59/68/27 57/47/25 26/50/10 
f 40/66/24 64/63/32 62/58/30 39/65/23 
# 54 polygons

