# 3ds Max Wavefront OBJ Exporter v0.97b - (c)2007 guruware
# File Created: 04.04.2020 20:13:43

#
# object stopsign
#

v  -0.4265 -10.7042 0.1970
v  0.3293 -10.7042 0.1970
v  0.3293 4.0354 0.1970
v  -0.4265 4.0354 0.1970
v  0.3293 -10.7042 -0.1755
v  0.3293 4.0354 -0.1755
v  -0.4265 -10.7042 -0.1755
v  -0.4265 4.0354 -0.1755
v  -1.3189 3.6282 -0.5050
v  1.3188 3.6282 -0.5050
v  1.3188 3.6282 0.5050
v  -1.3189 3.6282 0.5050
v  3.3895 5.6989 -0.5050
v  3.3895 8.6335 -0.5050
v  3.3895 8.6335 0.5050
v  3.3895 5.6989 0.5050
v  1.3188 10.7042 -0.5050
v  -1.3189 10.7042 -0.5050
v  -1.3189 10.7042 0.5050
v  1.3188 10.7042 0.5050
v  -3.3896 8.6335 -0.5050
v  -3.3896 5.6989 -0.5050
v  -3.3896 5.6989 0.5050
v  -3.3896 8.6335 0.5050
v  0.0000 7.1662 -0.5050
v  0.0000 7.1662 0.5050
# 26 vertices

vn -0.7071 0.0000 0.7071
vn 0.7071 0.0000 0.7071
vn 0.7071 0.0000 -0.7071
vn -0.7071 0.0000 -0.7071
vn -0.2971 -0.7173 -0.6303
vn 0.2971 -0.7173 -0.6303
vn 0.2971 -0.7173 0.6303
vn -0.2971 -0.7173 0.6303
vn 0.7173 -0.2971 -0.6303
vn 0.7173 0.2971 -0.6303
vn 0.7173 0.2971 0.6303
vn 0.7173 -0.2971 0.6303
vn 0.2971 0.7173 -0.6303
vn -0.2971 0.7173 -0.6303
vn -0.2971 0.7173 0.6303
vn 0.2971 0.7173 0.6303
vn -0.7173 0.2971 -0.6303
vn -0.7173 -0.2971 -0.6303
vn -0.7173 -0.2971 0.6303
vn -0.7173 0.2971 0.6303
vn 0.0000 0.0000 -1.0000
vn 0.0000 0.0000 1.0000
# 22 vertex normals

vt 0.9497 0.9562 0.0000
vt 0.9497 0.9537 0.0000
vt 0.9987 0.9537 0.0000
vt 0.9987 0.9562 0.0000
vt 0.9497 0.9525 0.0000
vt 0.9987 0.9525 0.0000
vt 0.9497 0.9500 0.0000
vt 0.9987 0.9500 0.0000
vt 0.9497 0.9487 0.0000
vt 0.9987 0.9487 0.0000
vt 0.2066 0.5739 0.0000
vt 0.2232 0.5739 0.0000
vt 0.2232 0.5802 0.0000
vt 0.2066 0.5802 0.0000
vt 0.0978 0.5739 0.0000
vt 0.1163 0.5739 0.0000
vt 0.1163 0.5802 0.0000
vt 0.0978 0.5802 0.0000
vt 0.1347 0.5739 0.0000
vt 0.1513 0.5739 0.0000
vt 0.1513 0.5802 0.0000
vt 0.1347 0.5802 0.0000
vt 0.1697 0.5739 0.0000
vt 0.1882 0.5739 0.0000
vt 0.1882 0.5802 0.0000
vt 0.1697 0.5802 0.0000
vt 0.0794 0.5739 0.0000
vt 0.0794 0.5802 0.0000
vt 0.1828 0.5424 0.0000
vt 0.1828 0.5608 0.0000
vt 0.1612 0.5523 0.0000
vt 0.1396 0.5621 0.0000
vt 0.1396 0.5437 0.0000
vt 0.1527 0.5307 0.0000
vt 0.1711 0.5307 0.0000
vt 0.1828 0.5932 0.0000
vt 0.1828 0.6117 0.0000
vt 0.1612 0.6018 0.0000
vt 0.1711 0.6234 0.0000
vt 0.1527 0.6234 0.0000
vt 0.1396 0.6104 0.0000
vt 0.1396 0.5920 0.0000
# 42 texture coords

o stopsign
g stopsign
s off
f 1/1/1 2/2/2 3/3/2 4/4/1 
f 2/2/2 5/5/3 6/6/3 3/3/2 
f 5/5/3 7/7/4 8/8/4 6/6/3 
f 7/7/4 1/9/1 4/10/1 8/8/4 
f 9/11/5 10/12/6 11/13/7 12/14/8 
f 13/15/9 14/16/10 15/17/11 16/18/12 
f 17/19/13 18/20/14 19/21/15 20/22/16 
f 21/23/17 22/24/18 23/25/19 24/26/20 
f 10/27/6 13/15/9 16/18/12 11/28/7 
f 12/14/8 23/25/19 22/24/18 9/11/5 
f 14/16/10 17/19/13 20/22/16 15/17/11 
f 18/20/14 21/23/17 24/26/20 19/21/15 
f 9/29/5 22/30/18 25/31/21 
f 22/30/18 21/23/17 25/31/21 
f 21/23/17 18/20/14 25/31/21 
f 18/20/14 17/32/13 25/31/21 
f 17/32/13 14/33/10 25/31/21 
f 14/33/10 13/34/9 25/31/21 
f 13/34/9 10/35/6 25/31/21 
f 10/35/6 9/29/5 25/31/21 
f 23/36/19 12/37/8 26/38/22 
f 12/37/8 11/39/7 26/38/22 
f 11/39/7 16/40/12 26/38/22 
f 16/40/12 15/41/11 26/38/22 
f 15/41/11 20/42/16 26/38/22 
f 20/42/16 19/21/15 26/38/22 
f 19/21/15 24/26/20 26/38/22 
f 24/26/20 23/36/19 26/38/22 
# 12 polygons - 16 triangles

