# 3ds Max Wavefront OBJ Exporter v0.97b - (c)2007 guruware
# File Created: 04.04.2020 22:26:40

#
# object stoplight
#

v  -29.9587 -41.3735 -1.1099
v  -29.9587 -41.3735 -4.8909
v  -26.9338 -41.3735 -4.8909
v  -26.9338 -41.3735 -1.1099
v  -29.9587 37.9406 -1.1099
v  -26.9338 37.9406 -1.1099
v  -26.9338 37.9406 -4.8909
v  -29.9587 37.9406 -4.8909
v  -26.9338 34.6781 -1.1099
v  -29.9587 34.6781 -1.1099
v  -26.9338 34.6781 -4.8909
v  -29.9587 34.6781 -4.8909
v  26.2540 34.6781 -4.8909
v  26.2540 37.9406 -4.8909
v  26.2540 37.9406 -1.1099
v  26.2540 34.6781 -1.1099
v  -5.5036 21.8705 -3.1991
v  -5.5036 28.3715 -3.1991
v  -0.1350 28.3715 -3.1991
v  -0.1350 21.8705 -3.1991
v  5.2335 21.8705 4.8909
v  5.2335 28.3715 4.8909
v  -0.1350 28.3715 4.8909
v  -0.1350 21.8705 4.8909
v  -5.5036 15.3695 -3.1991
v  -0.1350 15.3695 -3.1991
v  -0.1350 15.3695 4.8909
v  -5.5036 15.3695 4.8909
v  5.2335 21.8705 -3.1991
v  5.2335 28.3715 -3.1991
v  5.2335 41.3735 -3.1991
v  -0.1350 41.3735 -3.1991
v  -0.1350 41.3735 4.8909
v  5.2335 41.3735 4.8909
v  -5.5036 34.8725 -3.1991
v  -5.5036 28.3715 4.8909
v  -5.5036 34.8725 4.8909
v  -5.5036 41.3735 -3.1991
v  -0.1350 34.8725 -3.1991
v  5.2335 15.3695 -3.1991
v  5.2335 34.8725 4.8909
v  -0.1350 34.8725 4.8909
v  -5.5036 21.8705 4.8909
v  5.2335 34.8725 -3.1991
v  5.2335 15.3695 4.8909
v  -5.5036 41.3735 4.8909
v  14.7257 21.8705 -3.1991
v  14.7257 28.3715 -3.1991
v  20.0942 28.3715 -3.1991
v  20.0942 21.8705 -3.1991
v  25.4628 21.8705 4.8909
v  25.4628 28.3715 4.8909
v  20.0942 28.3715 4.8909
v  20.0942 21.8705 4.8909
v  14.7257 15.3695 -3.1991
v  20.0942 15.3695 -3.1991
v  20.0942 15.3695 4.8909
v  14.7257 15.3695 4.8909
v  25.4628 21.8705 -3.1991
v  25.4628 28.3715 -3.1991
v  25.4628 41.3735 -3.1991
v  20.0942 41.3735 -3.1991
v  20.0942 41.3735 4.8909
v  25.4628 41.3735 4.8909
v  14.7257 34.8725 -3.1991
v  14.7257 28.3715 4.8909
v  14.7257 34.8725 4.8909
v  14.7257 41.3735 -3.1991
v  20.0942 34.8725 -3.1991
v  25.4628 15.3695 -3.1991
v  25.4628 34.8725 4.8909
v  20.0942 34.8725 4.8909
v  14.7257 21.8705 4.8909
v  25.4628 34.8725 -3.1991
v  25.4628 15.3695 4.8909
v  14.7257 41.3735 4.8909
# 76 vertices

vn -0.5774 -0.5774 0.5774
vn -0.5774 -0.5774 -0.5774
vn 0.5774 -0.5774 -0.5774
vn 0.5774 -0.5774 0.5774
vn -0.5774 0.5774 0.5774
vn 0.0000 0.7071 0.7071
vn 0.0000 0.7071 -0.7071
vn -0.5774 0.5774 -0.5774
vn 0.3015 -0.3015 0.9045
vn -0.7071 0.0000 0.7071
vn 0.3015 -0.3015 -0.9045
vn -0.7071 0.0000 -0.7071
vn 0.5774 0.5774 -0.5774
vn 0.5774 0.5774 0.5774
vn 0.0000 0.0000 -1.0000
vn 0.7071 0.0000 0.7071
vn 0.0000 0.0000 1.0000
vn 0.0000 -0.7071 -0.7071
vn 0.0000 -0.7071 0.7071
vn 0.7071 0.0000 -0.7071
# 20 vertex normals

vt 0.7095 0.5829 0.0000
vt 0.7221 0.5829 0.0000
vt 0.7221 0.5930 0.0000
vt 0.7095 0.5930 0.0000
vt 0.9857 0.6156 0.0000
vt 0.9857 0.6055 0.0000
vt 0.9982 0.6055 0.0000
vt 0.9982 0.6156 0.0000
vt 0.7221 0.6156 0.0000
vt 0.7221 0.6055 0.0000
vt 0.9748 0.6055 0.0000
vt 0.9748 0.6156 0.0000
vt 0.9748 0.5930 0.0000
vt 0.9748 0.5829 0.0000
vt 0.7221 0.6282 0.0000
vt 0.9748 0.6282 0.0000
vt 0.9623 0.8275 0.0000
vt 0.9514 0.8275 0.0000
vt 0.9514 0.8149 0.0000
vt 0.9623 0.8149 0.0000
vt 0.9857 0.6282 0.0000
vt 0.9857 0.6382 0.0000
vt 0.9748 0.6382 0.0000
vt 0.9389 0.6382 0.0000
vt 0.9514 0.6382 0.0000
vt 0.9389 0.8149 0.0000
vt 0.9623 0.6382 0.0000
vt 0.9748 0.8149 0.0000
vt 0.9857 0.8149 0.0000
vt 0.8445 0.6513 0.0000
vt 0.8661 0.6513 0.0000
vt 0.8661 0.6691 0.0000
vt 0.8445 0.6691 0.0000
vt 0.8445 0.7138 0.0000
vt 0.8661 0.7138 0.0000
vt 0.8661 0.7317 0.0000
vt 0.8445 0.7317 0.0000
vt 0.7960 0.7495 0.0000
vt 0.7960 0.7317 0.0000
vt 0.8229 0.7317 0.0000
vt 0.8229 0.7495 0.0000
vt 0.8445 0.6869 0.0000
vt 0.8661 0.6869 0.0000
vt 0.9362 0.7138 0.0000
vt 0.9362 0.7317 0.0000
vt 0.9093 0.7317 0.0000
vt 0.9093 0.7138 0.0000
vt 0.8877 0.7764 0.0000
vt 0.8661 0.7764 0.0000
vt 0.8661 0.7495 0.0000
vt 0.8877 0.7495 0.0000
vt 0.8877 0.6513 0.0000
vt 0.9093 0.6513 0.0000
vt 0.9093 0.6691 0.0000
vt 0.8877 0.6691 0.0000
vt 0.8229 0.6869 0.0000
vt 0.8229 0.6691 0.0000
vt 0.8877 0.7138 0.0000
vt 0.8877 0.7317 0.0000
vt 0.8445 0.7495 0.0000
vt 0.8877 0.6869 0.0000
vt 0.9093 0.6869 0.0000
vt 0.8229 0.7138 0.0000
vt 0.8445 0.7764 0.0000
vt 0.8229 0.7764 0.0000
vt 0.9093 0.7495 0.0000
vt 0.9093 0.7764 0.0000
vt 0.7960 0.7138 0.0000
vt 0.9362 0.7495 0.0000
vt 0.8229 0.6513 0.0000
# 70 texture coords

o stoplight
g stoplight
s off
f 1/1/1 2/2/2 3/3/3 4/4/4 
f 5/5/5 6/6/6 7/7/7 8/8/8 
f 1/9/1 4/10/4 9/11/9 10/12/10 
f 4/10/4 3/3/3 11/13/11 9/11/9 
f 3/3/3 2/2/2 12/14/12 11/13/11 
f 2/15/2 1/9/1 10/12/10 12/16/12 
f 9/11/9 6/6/6 5/5/5 10/12/10 
f 13/17/3 14/18/13 15/19/14 16/20/4 
f 12/16/12 8/21/8 7/22/7 11/23/11 
f 10/12/10 5/5/5 8/21/8 12/16/12 
f 7/24/7 6/25/6 15/19/14 14/26/13 
f 6/25/6 9/27/9 16/20/4 15/19/14 
f 9/27/9 11/23/11 13/28/3 16/20/4 
f 11/23/11 7/22/7 14/29/13 13/28/3 
f 17/30/12 18/31/12 19/32/15 20/33/15 
f 21/34/16 22/35/16 23/36/17 24/37/17 
f 25/38/2 26/39/18 27/40/19 28/41/1 
f 29/42/20 30/43/20 22/35/16 21/34/16 
f 31/44/13 32/45/7 33/46/6 34/47/14 
f 35/48/12 18/49/12 36/50/10 37/51/10 
f 35/52/12 38/53/8 32/54/7 39/55/15 
f 18/31/12 35/52/12 39/55/15 19/32/15 
f 29/42/20 40/56/3 26/57/18 20/33/15 
f 41/58/16 34/47/14 33/46/6 42/59/17 
f 22/35/16 41/58/16 42/59/17 23/36/17 
f 43/60/10 28/41/1 27/40/19 24/37/17 
f 44/61/20 31/62/13 34/47/14 41/58/16 
f 30/43/20 44/61/20 41/58/16 22/35/16 
f 21/34/16 45/63/4 40/56/3 29/42/20 
f 17/64/12 25/65/2 28/41/1 43/60/10 
f 18/49/12 17/64/12 43/60/10 36/50/10 
f 37/51/10 46/66/5 38/67/8 35/48/12 
f 19/32/15 30/43/20 29/42/20 20/33/15 
f 23/36/17 36/50/10 43/60/10 24/37/17 
f 26/39/18 40/68/3 45/63/4 27/40/19 
f 32/45/7 38/69/8 46/66/5 33/46/6 
f 32/54/7 31/62/13 44/61/20 39/55/15 
f 39/55/15 44/61/20 30/43/20 19/32/15 
f 26/57/18 25/70/2 17/30/12 20/33/15 
f 33/46/6 46/66/5 37/51/10 42/59/17 
f 42/59/17 37/51/10 36/50/10 23/36/17 
f 27/40/19 45/63/4 21/34/16 24/37/17 
f 47/30/12 48/31/12 49/32/15 50/33/15 
f 51/34/16 52/35/16 53/36/17 54/37/17 
f 55/38/2 56/39/18 57/40/19 58/41/1 
f 59/42/20 60/43/20 52/35/16 51/34/16 
f 61/44/13 62/45/7 63/46/6 64/47/14 
f 65/48/12 48/49/12 66/50/10 67/51/10 
f 65/52/12 68/53/8 62/54/7 69/55/15 
f 48/31/12 65/52/12 69/55/15 49/32/15 
f 59/42/20 70/56/3 56/57/18 50/33/15 
f 71/58/16 64/47/14 63/46/6 72/59/17 
f 52/35/16 71/58/16 72/59/17 53/36/17 
f 73/60/10 58/41/1 57/40/19 54/37/17 
f 74/61/20 61/62/13 64/47/14 71/58/16 
f 60/43/20 74/61/20 71/58/16 52/35/16 
f 51/34/16 75/63/4 70/56/3 59/42/20 
f 47/64/12 55/65/2 58/41/1 73/60/10 
f 48/49/12 47/64/12 73/60/10 66/50/10 
f 67/51/10 76/66/5 68/67/8 65/48/12 
f 49/32/15 60/43/20 59/42/20 50/33/15 
f 53/36/17 66/50/10 73/60/10 54/37/17 
f 56/39/18 70/68/3 75/63/4 57/40/19 
f 62/45/7 68/69/8 76/66/5 63/46/6 
f 62/54/7 61/62/13 74/61/20 69/55/15 
f 69/55/15 74/61/20 60/43/20 49/32/15 
f 56/57/18 55/70/2 47/30/12 50/33/15 
f 63/46/6 76/66/5 67/51/10 72/59/17 
f 72/59/17 67/51/10 66/50/10 53/36/17 
f 57/40/19 75/63/4 51/34/16 54/37/17 
# 70 polygons

