# 3ds Max Wavefront OBJ Exporter v0.97b - (c)2007 guruware
# File Created: 04.04.2020 20:13:45

#
# object warningsign
#

v  -3.6059 4.2569 -0.4461
v  -0.0454 10.5289 -0.4461
v  3.6059 4.3095 -0.4461
v  -0.0454 10.5289 0.4461
v  3.6059 4.3095 0.4461
v  -3.6059 4.2569 0.4461
v  -0.4233 -10.5289 0.2558
v  0.3325 -10.5289 0.2558
v  0.3325 4.2107 0.2558
v  -0.4233 4.2107 0.2558
v  0.3325 -10.5289 -0.1166
v  0.3325 4.2107 -0.1166
v  -0.4233 -10.5289 -0.1166
v  -0.4233 4.2107 -0.1166
# 14 vertices

vn -0.7174 -0.4214 -0.5547
vn -0.0059 0.8320 -0.5547
vn 0.7236 -0.4108 -0.5547
vn -0.0059 0.8320 0.5547
vn 0.7236 -0.4108 0.5547
vn -0.7174 -0.4214 0.5547
vn -0.7071 0.0000 0.7071
vn 0.7071 0.0000 0.7071
vn 0.7071 0.0000 -0.7071
vn -0.7071 0.0000 -0.7071
# 10 vertex normals

vt 0.5184 0.9428 0.0000
vt 0.5411 0.9035 0.0000
vt 0.5638 0.9428 0.0000
vt 0.5686 0.9512 0.0000
vt 0.5460 0.9905 0.0000
vt 0.5411 0.9877 0.0000
vt 0.5638 0.9484 0.0000
vt 0.5362 0.9905 0.0000
vt 0.5136 0.9512 0.0000
vt 0.5184 0.9484 0.0000
vt 0.9497 0.9562 0.0000
vt 0.9497 0.9537 0.0000
vt 0.9987 0.9537 0.0000
vt 0.9987 0.9562 0.0000
vt 0.9497 0.9525 0.0000
vt 0.9987 0.9525 0.0000
vt 0.9497 0.9500 0.0000
vt 0.9987 0.9500 0.0000
vt 0.9497 0.9487 0.0000
vt 0.9987 0.9487 0.0000
# 20 texture coords

o warningsign
g warningsign
s off
f 1/1/1 2/2/2 3/3/3 
f 3/4/3 2/5/2 4/6/4 5/7/5 
f 2/8/2 1/9/1 6/10/6 4/6/4 
f 1/1/1 3/3/3 5/7/5 6/10/6 
f 6/10/6 5/7/5 4/6/4 
f 7/11/7 8/12/8 9/13/8 10/14/7 
f 8/12/8 11/15/9 12/16/9 9/13/8 
f 11/15/9 13/17/10 14/18/10 12/16/9 
f 13/17/10 7/19/7 10/20/7 14/18/10 
# 7 polygons - 2 triangles

