# 3ds Max Wavefront OBJ Exporter v0.97b - (c)2007 guruware
# File Created: 31.03.2020 15:15:30

#
# object doodad_hanger2
#

v  -0.0001 -9.9934 0.8959
v  -0.0001 -9.9934 0.1619
v  -0.0001 -8.4548 0.1619
v  -0.0001 -8.4548 0.8959
v  -0.0001 -9.9934 -0.1619
v  -0.0001 -8.4548 -0.1619
v  -0.0001 -9.9934 -0.8959
v  -0.0001 -8.4548 -0.8959
v  -0.0001 -6.9162 0.1619
v  -0.0001 -6.9162 0.8959
v  -0.0001 -6.9162 -0.1619
v  -0.0001 -6.9162 -0.8959
v  -0.0001 0.0000 -0.1619
v  -0.0001 0.0000 0.1619
# 14 vertices

vn 1.0000 0.0000 -0.0000
# 1 vertex normals

vt 0.9395 0.1566 0.0000
vt 0.9634 0.1566 0.0000
vt 0.9634 0.2068 0.0000
vt 0.9395 0.2068 0.0000
vt 0.9740 0.1566 0.0000
vt 0.9740 0.2068 0.0000
vt 0.9979 0.1566 0.0000
vt 0.9979 0.2068 0.0000
vt 0.9634 0.2570 0.0000
vt 0.9395 0.2570 0.0000
vt 0.9740 0.2570 0.0000
vt 0.9979 0.2570 0.0000
vt 0.9740 0.4826 0.0000
vt 0.9634 0.4826 0.0000
# 14 texture coords

o doodad_hanger2
g doodad_hanger2
s off
f 1/1/1 2/2/1 3/3/1 4/4/1 
f 2/2/1 5/5/1 6/6/1 3/3/1 
f 5/5/1 7/7/1 8/8/1 6/6/1 
f 4/4/1 3/3/1 9/9/1 10/10/1 
f 3/3/1 6/6/1 11/11/1 9/9/1 
f 6/6/1 8/8/1 12/12/1 11/11/1 
f 9/9/1 11/11/1 13/13/1 14/14/1 
# 7 polygons

