# 3ds Max Wavefront OBJ Exporter v0.97b - (c)2007 guruware
# File Created: 31.03.2020 15:15:04

#
# object doodad_can
#

v  0.8070 -0.0000 -0.0000
v  0.5707 -0.0000 -0.5707
v  0.5707 1.1392 -0.5707
v  0.8070 1.1392 -0.0000
v  0.0000 -0.0000 -0.8071
v  0.0000 1.1392 -0.8071
v  -0.5706 -0.0000 -0.5707
v  -0.5706 1.1392 -0.5707
v  -0.8070 -0.0000 -0.0000
v  -0.8070 1.1392 -0.0000
v  -0.5706 -0.0000 0.5707
v  -0.5706 1.1392 0.5707
v  0.0000 -0.0000 0.8071
v  0.0000 1.1392 0.8071
v  0.5707 -0.0000 0.5707
v  0.5707 1.1392 0.5707
v  0.5046 1.2312 -0.5046
v  0.7136 1.2312 -0.0000
v  0.0000 1.2312 -0.7136
v  -0.5046 1.2312 -0.5046
v  -0.7136 1.2312 -0.0000
v  -0.5046 1.2312 0.5046
v  0.0000 1.2312 0.7136
v  0.5046 1.2312 0.5046
v  0.0000 1.2312 -0.0000
v  0.8070 -1.1391 -0.0000
v  0.5707 -1.1391 -0.5707
v  0.0000 -1.1391 -0.8071
v  -0.5706 -1.1391 -0.5707
v  -0.8070 -1.1391 -0.0000
v  -0.5706 -1.1391 0.5707
v  0.0000 -1.1391 0.8071
v  0.5707 -1.1391 0.5707
v  0.7136 -1.2312 -0.0000
v  0.5046 -1.2312 -0.5046
v  0.0000 -1.2312 -0.7136
v  -0.5046 -1.2312 -0.5046
v  -0.7136 -1.2312 -0.0000
v  -0.5046 -1.2312 0.5046
v  0.0000 -1.2312 0.7136
v  0.5046 -1.2312 0.5046
v  0.0000 -1.2312 -0.0000
# 42 vertices

vn 1.0000 0.0000 -0.0000
vn 0.7071 0.0000 -0.7071
vn 0.6607 0.3564 -0.6607
vn 0.9344 0.3563 -0.0000
vn -0.0000 0.0000 -1.0000
vn -0.0000 0.3563 -0.9344
vn -0.7071 0.0000 -0.7071
vn -0.6607 0.3563 -0.6607
vn -1.0000 0.0000 -0.0000
vn -0.9344 0.3564 -0.0000
vn -0.7071 0.0000 0.7071
vn -0.6607 0.3563 0.6607
vn 0.0000 0.0000 1.0000
vn 0.0000 0.3564 0.9343
vn 0.7071 0.0000 0.7071
vn 0.6607 0.3564 0.6607
vn 0.3209 0.8911 -0.3209
vn 0.4540 0.8910 -0.0000
vn 0.0000 0.8910 -0.4540
vn -0.3210 0.8910 -0.3210
vn -0.4539 0.8911 -0.0000
vn -0.3210 0.8910 0.3210
vn 0.0000 0.8911 0.4539
vn 0.3209 0.8911 0.3209
vn 0.0000 1.0000 -0.0000
vn 0.9344 -0.3562 -0.0000
vn 0.6607 -0.3563 -0.6607
vn -0.0000 -0.3562 -0.9344
vn -0.6607 -0.3562 -0.6608
vn -0.9344 -0.3563 -0.0000
vn -0.6607 -0.3563 0.6607
vn 0.0000 -0.3563 0.9344
vn 0.6607 -0.3563 0.6607
vn 0.4541 -0.8909 -0.0000
vn 0.3210 -0.8910 -0.3210
vn 0.0000 -0.8909 -0.4541
vn -0.3211 -0.8910 -0.3210
vn -0.4540 -0.8910 -0.0000
vn -0.3211 -0.8910 0.3210
vn 0.0000 -0.8910 0.4540
vn 0.3210 -0.8910 0.3210
vn 0.0000 -1.0000 -0.0000
# 42 vertex normals

vt 0.5976 0.6676 0.0000
vt 0.5976 0.6920 0.0000
vt 0.5528 0.6920 0.0000
vt 0.5528 0.6676 0.0000
vt 0.5976 0.7163 0.0000
vt 0.5528 0.7163 0.0000
vt 0.5976 0.7407 0.0000
vt 0.5528 0.7407 0.0000
vt 0.5976 0.7651 0.0000
vt 0.5528 0.7651 0.0000
vt 0.5976 0.7898 0.0000
vt 0.5528 0.7898 0.0000
vt 0.5976 0.8141 0.0000
vt 0.5528 0.8141 0.0000
vt 0.5976 0.8385 0.0000
vt 0.5528 0.8385 0.0000
vt 0.5976 0.8628 0.0000
vt 0.5528 0.8628 0.0000
vt 0.4920 0.7905 0.0000
vt 0.4918 0.7654 0.0000
vt 0.4965 0.7673 0.0000
vt 0.4966 0.7886 0.0000
vt 0.5095 0.7475 0.0000
vt 0.5115 0.7521 0.0000
vt 0.5347 0.7473 0.0000
vt 0.5328 0.7520 0.0000
vt 0.5480 0.7669 0.0000
vt 0.5481 0.7881 0.0000
vt 0.5351 0.8079 0.0000
vt 0.5332 0.8033 0.0000
vt 0.5100 0.8081 0.0000
vt 0.5118 0.8035 0.0000
vt 0.5223 0.7777 0.0000
vt 0.6425 0.6676 0.0000
vt 0.6425 0.6920 0.0000
vt 0.6425 0.7163 0.0000
vt 0.6425 0.7407 0.0000
vt 0.6425 0.7651 0.0000
vt 0.6425 0.7898 0.0000
vt 0.6425 0.8141 0.0000
vt 0.6425 0.8385 0.0000
vt 0.6425 0.8628 0.0000
vt 0.7033 0.7904 0.0000
vt 0.6987 0.7885 0.0000
vt 0.6988 0.7672 0.0000
vt 0.7035 0.7653 0.0000
vt 0.6838 0.7520 0.0000
vt 0.6857 0.7474 0.0000
vt 0.6625 0.7519 0.0000
vt 0.6606 0.7473 0.0000
vt 0.6473 0.7669 0.0000
vt 0.6472 0.7881 0.0000
vt 0.6622 0.8032 0.0000
vt 0.6602 0.8078 0.0000
vt 0.6835 0.8034 0.0000
vt 0.6854 0.8081 0.0000
vt 0.6730 0.7776 0.0000
# 57 texture coords

o doodad_can
g doodad_can
s off
f 1/1/1 2/2/2 3/3/3 4/4/4 
f 2/2/2 5/5/5 6/6/6 3/3/3 
f 5/5/5 7/7/7 8/8/8 6/6/6 
f 7/7/7 9/9/9 10/10/10 8/8/8 
f 9/9/9 11/11/11 12/12/12 10/10/10 
f 11/11/11 13/13/13 14/14/14 12/12/12 
f 13/13/13 15/15/15 16/16/16 14/14/14 
f 15/15/15 1/17/1 4/18/4 16/16/16 
f 4/19/4 3/20/3 17/21/17 18/22/18 
f 3/20/3 6/23/6 19/24/19 17/21/17 
f 6/23/6 8/25/8 20/26/20 19/24/19 
f 8/25/8 10/10/10 21/27/21 20/26/20 
f 10/10/10 12/12/12 22/28/22 21/27/21 
f 12/12/12 14/29/14 23/30/23 22/28/22 
f 14/29/14 16/31/16 24/32/24 23/30/23 
f 16/31/16 4/19/4 18/22/18 24/32/24 
f 25/33/25 18/22/18 17/21/17 
f 25/33/25 17/21/17 19/24/19 
f 25/33/25 19/24/19 20/26/20 
f 25/33/25 20/26/20 21/27/21 
f 25/33/25 21/27/21 22/28/22 
f 25/33/25 22/28/22 23/30/23 
f 25/33/25 23/30/23 24/32/24 
f 25/33/25 24/32/24 18/22/18 
f 1/1/1 26/34/26 27/35/27 2/2/2 
f 2/2/2 27/35/27 28/36/28 5/5/5 
f 5/5/5 28/36/28 29/37/29 7/7/7 
f 7/7/7 29/37/29 30/38/30 9/9/9 
f 9/9/9 30/38/30 31/39/31 11/11/11 
f 11/11/11 31/39/31 32/40/32 13/13/13 
f 13/13/13 32/40/32 33/41/33 15/15/15 
f 15/15/15 33/41/33 26/42/26 1/17/1 
f 26/43/26 34/44/34 35/45/35 27/46/27 
f 27/46/27 35/45/35 36/47/36 28/48/28 
f 28/48/28 36/47/36 37/49/37 29/50/29 
f 29/50/29 37/49/37 38/51/38 30/38/30 
f 30/38/30 38/51/38 39/52/39 31/39/31 
f 31/39/31 39/52/39 40/53/40 32/54/32 
f 32/54/32 40/53/40 41/55/41 33/56/33 
f 33/56/33 41/55/41 34/44/34 26/43/26 
f 42/57/42 35/45/35 34/44/34 
f 42/57/42 36/47/36 35/45/35 
f 42/57/42 37/49/37 36/47/36 
f 42/57/42 38/51/38 37/49/37 
f 42/57/42 39/52/39 38/51/38 
f 42/57/42 40/53/40 39/52/39 
f 42/57/42 41/55/41 40/53/40 
f 42/57/42 34/44/34 41/55/41 
# 32 polygons - 16 triangles

