# 3ds Max Wavefront OBJ Exporter v0.97b - (c)2007 guruware
# File Created: 31.03.2020 15:15:22

#
# object mech_knee_square_L
#

v  -4.7628 -8.2800 3.5202
v  -5.2814 -9.9476 4.5862
v  -6.8871 -3.5384 8.1460
v  -6.2140 -3.0159 6.4651
v  -4.7628 3.1783 8.3907
v  -5.2814 3.3150 10.2765
v  -0.0000 3.3150 10.2765
v  -0.0000 3.1783 8.3907
v  -6.2140 -4.0325 9.7352
v  -0.0000 -4.0325 9.7351
v  -0.0000 2.1617 11.6607
v  -4.7628 2.1617 11.6607
v  -0.0000 -9.9476 4.5862
v  -0.0000 -10.3537 6.2453
v  -4.7628 -10.3537 6.2453
v  -0.0000 -3.0159 6.4651
v  -0.0000 -8.2800 3.5202
v  4.7628 -8.2800 3.5202
v  6.2140 -3.0159 6.4651
v  6.8871 -3.5384 8.1460
v  5.2814 -9.9476 4.5862
v  4.7628 3.1783 8.3907
v  5.2814 3.3150 10.2765
v  6.2140 -4.0325 9.7352
v  4.7628 2.1617 11.6607
v  4.7628 -10.3537 6.2453
# 26 vertices

vn -0.4054 -0.0241 -0.9138
vn -0.6245 -0.6476 -0.4366
vn -0.9995 -0.0138 0.0280
vn -0.6358 0.2912 -0.7148
vn -0.4131 0.7095 -0.5709
vn -0.6217 0.7450 0.2417
vn 0.0000 0.9520 0.3061
vn 0.0000 0.7832 -0.6217
vn -0.5900 -0.3028 0.7485
vn 0.0000 -0.3921 0.9199
vn 0.0000 0.2834 0.9590
vn -0.4075 0.2514 0.8779
vn 0.0000 -0.8133 -0.5819
vn 0.0000 -0.9159 0.4015
vn -0.4147 -0.8286 0.3761
vn 0.0000 0.3947 -0.9188
vn 0.0000 -0.0294 -0.9996
vn 0.4054 -0.0241 -0.9138
vn 0.6358 0.2912 -0.7148
vn 0.9995 -0.0138 0.0280
vn 0.6245 -0.6476 -0.4366
vn 0.4131 0.7095 -0.5709
vn 0.6217 0.7450 0.2417
vn 0.5900 -0.3028 0.7485
vn 0.4075 0.2514 0.8779
vn 0.4147 -0.8286 0.3761
# 26 vertex normals

vt 0.1021 0.9388 0.0000
vt 0.1090 0.9518 0.0000
vt 0.0642 0.9536 0.0000
vt 0.0652 0.9445 0.0000
vt 0.0022 0.9655 0.0000
vt 0.0137 0.9628 0.0000
vt 0.0124 0.9946 0.0000
vt 0.0010 0.9941 0.0000
vt 0.0633 0.9619 0.0000
vt 0.0638 0.9980 0.0000
vt 0.0232 0.9954 0.0000
vt 0.0244 0.9661 0.0000
vt 0.0204 0.9530 0.0000
vt 0.0255 0.9398 0.0000
vt 0.1168 0.9614 0.0000
vt 0.1188 0.9932 0.0000
vt 0.1086 0.9941 0.0000
vt 0.1067 0.9648 0.0000
vt 0.0648 0.9081 0.0000
vt 0.1022 0.9091 0.0000
vt 0.1307 0.9925 0.0000
vt 0.1289 0.9638 0.0000
vt 0.0246 0.9102 0.0000
vt 1.1021 0.9388 0.0000
vt 1.0652 0.9445 0.0000
vt 1.0642 0.9536 0.0000
vt 1.1090 0.9518 0.0000
vt 1.0022 0.9655 0.0000
vt 1.0010 0.9941 0.0000
vt 1.0124 0.9946 0.0000
vt 1.0137 0.9628 0.0000
vt 1.0633 0.9619 0.0000
vt 1.0244 0.9661 0.0000
vt 1.0232 0.9954 0.0000
vt 1.0638 0.9980 0.0000
vt 1.0255 0.9398 0.0000
vt 1.0204 0.9530 0.0000
vt 1.1168 0.9614 0.0000
vt 1.1067 0.9648 0.0000
vt 1.1086 0.9941 0.0000
vt 1.1188 0.9932 0.0000
vt 1.0648 0.9081 0.0000
vt 1.1022 0.9091 0.0000
vt 1.1307 0.9925 0.0000
vt 1.1289 0.9638 0.0000
vt 1.0246 0.9102 0.0000
# 46 texture coords

o mech_knee_square_L
g mech_knee_square_L
s off
f 1/1/1 2/2/2 3/3/3 4/4/4 
f 5/5/5 6/6/6 7/7/7 8/8/8 
f 9/9/9 10/10/10 11/11/11 12/12/12 
f 4/4/4 3/3/3 6/13/6 5/14/5 
f 2/15/2 13/16/13 14/17/14 15/18/15 
f 3/3/3 2/2/2 15/18/15 9/9/9 
f 6/13/6 3/3/3 9/9/9 12/12/12 
f 16/19/16 17/20/17 1/1/1 4/4/4 
f 14/17/14 10/10/10 9/9/9 15/18/15 
f 17/21/17 13/16/13 2/15/2 1/22/1 
f 8/23/8 16/19/16 4/4/4 5/14/5 
f 11/11/11 7/7/7 6/6/6 12/12/12 
f 18/24/18 19/25/19 20/26/20 21/27/21 
f 22/28/22 8/29/8 7/30/7 23/31/23 
f 24/32/24 25/33/25 11/34/11 10/35/10 
f 19/25/19 22/36/22 23/37/23 20/26/20 
f 21/38/21 26/39/26 14/40/14 13/41/13 
f 20/26/20 24/32/24 26/39/26 21/27/21 
f 23/37/23 25/33/25 24/32/24 20/26/20 
f 16/42/16 19/25/19 18/24/18 17/43/17 
f 14/40/14 26/39/26 24/32/24 10/35/10 
f 17/44/17 18/45/18 21/38/21 13/41/13 
f 8/46/8 22/36/22 19/25/19 16/42/16 
f 11/34/11 25/33/25 23/31/23 7/30/7 
# 24 polygons

