# 3ds Max Wavefront OBJ Exporter v0.97b - (c)2007 guruware
# File Created: 31.03.2020 15:14:52

#
# object mech_shoulder_square_R
#

v  -4.9367 0.6330 12.6252
v  -4.9367 5.8292 10.7340
v  -4.9367 5.2897 9.2519
v  -4.9367 0.0935 11.1431
v  -4.9367 10.9636 6.0007
v  -4.9367 9.5977 5.2121
v  1.4059 10.7458 5.6106
v  1.4059 5.5590 9.9810
v  -4.9367 11.3145 0.3367
v  -4.9367 9.8852 0.3367
v  1.4059 11.1044 0.3367
v  -2.9747 -1.7502 11.8142
v  -2.9747 -1.2107 13.2963
v  1.4059 -2.9070 12.7661
v  1.4059 -2.2624 14.3631
v  1.4059 -0.6898 12.0367
v  1.4059 -0.0453 13.6338
v  1.4059 6.2035 11.5781
v  1.4059 12.3851 6.4571
v  1.4059 12.8218 0.3367
v  -4.9367 0.6330 -11.9517
v  -4.9367 0.0935 -10.4696
v  -4.9367 5.2897 -8.5784
v  -4.9367 5.8292 -10.0605
v  -4.9367 9.5977 -4.5386
v  -4.9367 10.9636 -5.3272
v  1.4059 5.5590 -9.3075
v  1.4059 10.7458 -4.9371
v  -2.9747 -1.2107 -12.6228
v  -2.9747 -1.7502 -11.1407
v  1.4059 -2.9070 -12.0926
v  1.4059 -2.2624 -13.6896
v  1.4059 -0.6898 -11.3632
v  1.4059 -0.0453 -12.9603
v  1.4059 6.2035 -10.9046
v  1.4059 12.3851 -5.7836
v  7.7485 0.6330 12.6252
v  7.7485 0.0935 11.1431
v  7.7485 5.2897 9.2519
v  7.7485 5.8292 10.7340
v  7.7485 9.5977 5.2121
v  7.7485 10.9636 6.0007
v  7.7485 9.8852 0.3367
v  7.7485 11.3145 0.3367
v  5.7865 -1.2107 13.2963
v  5.7865 -1.7502 11.8142
v  7.7485 0.6330 -11.9517
v  7.7485 5.8292 -10.0605
v  7.7485 5.2897 -8.5784
v  7.7485 0.0935 -10.4696
v  7.7485 10.9636 -5.3272
v  7.7485 9.5977 -4.5386
v  5.7865 -1.7502 -11.1407
v  5.7865 -1.2107 -12.6228
# 54 vertices

vn -0.7475 -0.0812 0.6592
vn -0.7171 0.3639 0.5945
vn -0.7149 -0.3680 -0.5945
vn -0.6915 -0.5016 -0.5198
vn -0.7157 0.6283 0.3049
vn -0.7428 -0.6049 -0.2871
vn 0.0000 -0.8946 -0.4469
vn 0.0000 -0.4854 -0.8743
vn -0.7729 0.6346 -0.0000
vn -0.6514 -0.7587 0.0000
vn 0.0000 -1.0000 0.0000
vn -0.3218 -0.8087 -0.4923
vn -0.4611 -0.4755 0.7492
vn 0.0000 -0.9521 -0.3059
vn -0.0000 -0.4568 0.8895
vn 0.0000 -0.3125 -0.9499
vn 0.0000 0.3125 0.9499
vn -0.0000 0.4824 0.8760
vn 0.0000 0.8932 0.4497
vn -0.0000 1.0000 -0.0000
vn -0.7476 -0.0813 -0.6592
vn -0.6915 -0.5016 0.5198
vn -0.7149 -0.3680 0.5945
vn -0.7171 0.3639 -0.5945
vn -0.7428 -0.6049 0.2871
vn -0.7157 0.6283 -0.3049
vn 0.0000 -0.4854 0.8743
vn 0.0000 -0.8946 0.4469
vn -0.4611 -0.4755 -0.7492
vn -0.3218 -0.8087 0.4924
vn -0.0000 -0.9521 0.3059
vn 0.0000 -0.4568 -0.8895
vn 0.0000 -0.3125 0.9499
vn 0.0000 0.3125 -0.9499
vn 0.0000 0.4824 -0.8760
vn -0.0000 0.8932 -0.4497
vn 0.7475 -0.0812 0.6592
vn 0.6915 -0.5016 -0.5198
vn 0.7149 -0.3680 -0.5945
vn 0.7171 0.3639 0.5945
vn 0.7428 -0.6049 -0.2871
vn 0.7157 0.6283 0.3049
vn 0.6514 -0.7587 0.0000
vn 0.7729 0.6346 -0.0000
vn 0.4611 -0.4755 0.7492
vn 0.3218 -0.8087 -0.4923
vn 0.7476 -0.0813 -0.6592
vn 0.7171 0.3639 -0.5945
vn 0.7149 -0.3680 0.5945
vn 0.6915 -0.5016 0.5198
vn 0.7157 0.6283 -0.3049
vn 0.7428 -0.6049 0.2871
vn 0.3218 -0.8087 0.4924
vn 0.4611 -0.4755 -0.7492
# 54 vertex normals

vt 0.3773 0.5345 0.0000
vt 0.3464 0.5426 0.0000
vt 0.3425 0.5340 0.0000
vt 0.3758 0.5290 0.0000
vt 0.3066 0.5491 0.0000
vt 0.3049 0.5392 0.0000
vt 0.3008 0.5000 0.0000
vt 0.3399 0.4957 0.0000
vt 0.2732 0.5501 0.0000
vt 0.2729 0.5414 0.0000
vt 0.2715 0.5028 0.0000
vt 0.3894 0.5214 0.0000
vt 0.3927 0.5362 0.0000
vt 0.4166 0.5528 0.0000
vt 0.4092 0.5602 0.0000
vt 0.4001 0.5303 0.0000
vt 0.3801 0.4921 0.0000
vt 0.3951 0.4919 0.0000
vt 0.3959 0.5668 0.0000
vt 0.3572 0.5796 0.0000
vt 0.3100 0.5886 0.0000
vt 0.2746 0.5896 0.0000
vt 0.1683 0.5418 0.0000
vt 0.1693 0.5362 0.0000
vt 0.2029 0.5389 0.0000
vt 0.1996 0.5477 0.0000
vt 0.2408 0.5414 0.0000
vt 0.2398 0.5515 0.0000
vt 0.2028 0.5005 0.0000
vt 0.2422 0.5020 0.0000
vt 0.1530 0.5446 0.0000
vt 0.1552 0.5295 0.0000
vt 0.1303 0.5628 0.0000
vt 0.1452 0.5392 0.0000
vt 0.1382 0.5696 0.0000
vt 0.1624 0.4997 0.0000
vt 0.1475 0.5006 0.0000
vt 0.1519 0.5753 0.0000
vt 0.1915 0.5854 0.0000
vt 0.2391 0.5911 0.0000
vt 1.3773 0.5345 0.0000
vt 1.3758 0.5290 0.0000
vt 1.3425 0.5340 0.0000
vt 1.3464 0.5426 0.0000
vt 1.3049 0.5392 0.0000
vt 1.3066 0.5491 0.0000
vt 1.3399 0.4957 0.0000
vt 1.3008 0.5000 0.0000
vt 1.2729 0.5414 0.0000
vt 1.2732 0.5501 0.0000
vt 1.2715 0.5028 0.0000
vt 1.3927 0.5362 0.0000
vt 1.3894 0.5214 0.0000
vt 1.4166 0.5528 0.0000
vt 1.4001 0.5303 0.0000
vt 1.4092 0.5602 0.0000
vt 1.3801 0.4921 0.0000
vt 1.3951 0.4919 0.0000
vt 1.3959 0.5668 0.0000
vt 1.3572 0.5796 0.0000
vt 1.3100 0.5886 0.0000
vt 1.2746 0.5896 0.0000
vt 1.1683 0.5418 0.0000
vt 1.1996 0.5477 0.0000
vt 1.2029 0.5389 0.0000
vt 1.1693 0.5362 0.0000
vt 1.2398 0.5515 0.0000
vt 1.2408 0.5414 0.0000
vt 1.2422 0.5020 0.0000
vt 1.2028 0.5005 0.0000
vt 1.1552 0.5295 0.0000
vt 1.1530 0.5446 0.0000
vt 1.1303 0.5628 0.0000
vt 1.1382 0.5696 0.0000
vt 1.1452 0.5392 0.0000
vt 1.1624 0.4997 0.0000
vt 1.1475 0.5006 0.0000
vt 1.1519 0.5753 0.0000
vt 1.1915 0.5854 0.0000
vt 1.2391 0.5911 0.0000
# 80 texture coords

o mech_shoulder_square_R
g mech_shoulder_square_R
s off
f 1/1/1 2/2/2 3/3/3 4/4/4 
f 2/2/2 5/5/5 6/6/6 3/3/3 
f 3/3/3 6/6/6 7/7/7 8/8/8 
f 5/5/5 9/9/9 10/10/10 6/6/6 
f 6/6/6 10/10/10 11/11/11 7/7/7 
f 1/1/1 4/4/4 12/12/12 13/13/13 
f 14/14/14 15/15/15 13/13/13 12/16/12 
f 16/17/16 14/18/14 12/12/12 4/4/4 
f 17/19/17 18/20/18 2/2/2 1/1/1 
f 18/20/18 19/21/19 5/5/5 2/2/2 
f 19/21/19 20/22/20 9/9/9 5/5/5 
f 15/15/15 17/19/17 1/1/1 13/13/13 
f 8/8/8 16/17/16 4/4/4 3/3/3 
f 21/23/21 22/24/22 23/25/23 24/26/24 
f 24/26/24 23/25/23 25/27/25 26/28/26 
f 23/25/23 27/29/27 28/30/28 25/27/25 
f 26/28/26 25/27/25 10/10/10 9/9/9 
f 25/27/25 28/30/28 11/11/11 10/10/10 
f 21/23/21 29/31/29 30/32/30 22/24/22 
f 31/33/31 30/34/30 29/31/29 32/35/32 
f 33/36/33 22/24/22 30/32/30 31/37/31 
f 34/38/34 21/23/21 24/26/24 35/39/35 
f 35/39/35 24/26/24 26/28/26 36/40/36 
f 36/40/36 26/28/26 9/9/9 20/22/20 
f 32/35/32 29/31/29 21/23/21 34/38/34 
f 27/29/27 23/25/23 22/24/22 33/36/33 
f 37/41/37 38/42/38 39/43/39 40/44/40 
f 40/44/40 39/43/39 41/45/41 42/46/42 
f 39/43/39 8/47/8 7/48/7 41/45/41 
f 42/46/42 41/45/41 43/49/43 44/50/44 
f 41/45/41 7/48/7 11/51/11 43/49/43 
f 37/41/37 45/52/45 46/53/46 38/42/38 
f 14/54/14 46/55/46 45/52/45 15/56/15 
f 16/57/16 38/42/38 46/53/46 14/58/14 
f 17/59/17 37/41/37 40/44/40 18/60/18 
f 18/60/18 40/44/40 42/46/42 19/61/19 
f 19/61/19 42/46/42 44/50/44 20/62/20 
f 15/56/15 45/52/45 37/41/37 17/59/17 
f 8/47/8 39/43/39 38/42/38 16/57/16 
f 47/63/47 48/64/48 49/65/49 50/66/50 
f 48/64/48 51/67/51 52/68/52 49/65/49 
f 49/65/49 52/68/52 28/69/28 27/70/27 
f 51/67/51 44/50/44 43/49/43 52/68/52 
f 52/68/52 43/49/43 11/51/11 28/69/28 
f 47/63/47 50/66/50 53/71/53 54/72/54 
f 31/73/31 32/74/32 54/72/54 53/75/53 
f 33/76/33 31/77/31 53/71/53 50/66/50 
f 34/78/34 35/79/35 48/64/48 47/63/47 
f 35/79/35 36/80/36 51/67/51 48/64/48 
f 36/80/36 20/62/20 44/50/44 51/67/51 
f 32/74/32 34/78/34 47/63/47 54/72/54 
f 27/70/27 33/76/33 50/66/50 49/65/49 
# 52 polygons

