# 3ds Max Wavefront OBJ Exporter v0.97b - (c)2007 guruware
# File Created: 31.03.2020 15:15:15

#
# object mech_armor_square_L
#

v  6.1217 -2.6307 -4.7132
v  -0.1771 -3.8322 -2.9575
v  -0.0849 -1.7739 -0.6220
v  9.2674 0.0829 -3.2065
v  9.2085 -1.7595 -1.6368
v  -0.1403 -3.5361 1.0387
v  -0.2361 -5.6747 -1.3877
v  6.0627 -4.4731 -3.1435
v  -9.9265 -1.7206 0.8941
v  -9.9854 -3.5630 2.4638
v  -9.8400 -0.2997 6.0639
v  -9.7810 1.5427 4.4942
v  9.7812 8.7690 3.0647
v  9.7222 6.9266 4.6343
v  9.9264 1.9581 2.2010
v  9.9854 3.8005 0.6313
v  -7.2278 -5.6808 -0.3135
v  -7.1688 -3.8383 -1.8832
v  3.0868 10.4561 6.5896
v  3.0278 8.6137 8.1593
v  6.9060 9.4488 6.9745
v  6.9650 11.2912 5.4048
v  0.0767 1.8361 3.4741
v  0.0177 -0.0064 5.0438
# 24 vertices

vn 0.1205 -0.0074 -0.9927
vn -0.2137 0.0258 -0.9765
vn -0.2069 0.7380 -0.6423
vn 0.5638 0.2996 -0.7697
vn 0.7805 -0.6188 0.0888
vn 0.2069 -0.7380 0.6423
vn 0.0833 -0.9949 -0.0569
vn 0.3736 -0.9105 -0.1773
vn -0.7562 0.2993 -0.5819
vn -0.7050 -0.6617 0.2552
vn -0.5379 -0.0550 0.8412
vn -0.5653 0.8195 0.0937
vn 0.6200 0.6391 -0.4551
vn 0.7999 -0.0766 0.5953
vn 0.7932 -0.3913 0.4666
vn 0.6598 0.4238 -0.6206
vn -0.3411 -0.9357 -0.0897
vn -0.4131 0.0171 -0.9105
vn -0.5414 0.8400 0.0347
vn -0.3491 0.1327 0.9276
vn 0.4582 0.2064 0.8646
vn 0.2080 0.9721 -0.1089
vn -0.5448 0.7970 -0.2607
vn 0.0247 -0.3011 0.9533
# 24 vertex normals

vt 0.4430 0.6250 0.0000
vt 0.4851 0.6209 0.0000
vt 0.4849 0.6026 0.0000
vt 0.4250 0.6063 0.0000
vt 0.4332 0.6525 0.0000
vt 0.4913 0.6529 0.0000
vt 0.4890 0.6341 0.0000
vt 0.4510 0.6354 0.0000
vt 0.5581 0.6366 0.0000
vt 0.5487 0.6456 0.0000
vt 0.5565 0.6724 0.0000
vt 0.5711 0.6661 0.0000
vt 0.4173 0.7217 0.0000
vt 0.4295 0.7144 0.0000
vt 0.4312 0.6829 0.0000
vt 0.4172 0.6852 0.0000
vt 0.5292 0.6310 0.0000
vt 0.5303 0.6179 0.0000
vt 0.4608 0.7505 0.0000
vt 0.4690 0.7376 0.0000
vt 0.4445 0.7347 0.0000
vt 0.4351 0.7453 0.0000
vt 0.4184 0.5405 0.0000
vt 0.4843 0.5696 0.0000
vt 0.4589 0.5172 0.0000
vt 0.4340 0.5187 0.0000
vt 0.4952 0.6849 0.0000
vt 0.4202 0.6483 0.0000
vt 0.5451 0.5964 0.0000
vt 0.4854 0.5550 0.0000
vt 0.5441 0.5669 0.0000
vt 0.5451 0.5523 0.0000
vt 0.4776 0.7492 0.0000
vt 0.5034 0.6972 0.0000
vt 0.4211 0.5739 0.0000
# 35 texture coords

o mech_armor_square_L
g mech_armor_square_L
s off
f 1/1/1 2/2/2 3/3/3 4/4/4 
f 5/5/5 6/6/6 7/7/7 8/8/8 
f 1/1/1 8/8/8 7/7/7 2/2/2 
f 9/9/9 10/10/10 11/11/11 12/12/12 
f 13/13/13 14/14/14 15/15/15 16/16/16 
f 7/7/7 6/6/6 10/10/10 17/17/17 
f 2/2/2 7/7/7 17/17/17 18/18/18 
f 19/19/19 20/20/20 21/21/21 22/22/22 
f 13/23/13 23/24/23 19/25/19 22/26/22 
f 24/27/24 14/14/14 21/21/21 20/20/20 
f 16/16/16 15/15/15 5/5/5 4/28/4 
f 9/29/9 3/3/3 2/2/2 18/18/18 
f 24/30/24 23/24/23 12/31/12 11/32/11 
f 20/20/20 19/33/19 23/34/23 24/27/24 
f 18/18/18 17/17/17 10/10/10 9/9/9 
f 8/8/8 1/1/1 4/28/4 5/5/5 
f 22/22/22 21/21/21 14/14/14 13/13/13 
f 10/10/10 6/6/6 24/27/24 11/11/11 
f 6/6/6 5/5/5 15/15/15 24/27/24 
f 14/14/14 24/27/24 15/15/15 
f 23/24/23 13/23/13 16/35/16 
f 4/4/4 3/3/3 23/24/23 16/35/16 
f 3/3/3 9/29/9 12/31/12 23/24/23 
# 21 polygons - 2 triangles

